<svg xmlns="http://www.w3.org/2000/svg" width="64" height="64" viewBox="0 0 64 64"><path fill="#BAD6EE" d="M48.771 17.634c-.778-1.021-1.472-1.768-2.051-2.31l.002.001s-1.613 3.769-1.531 12.657l2.08 2.21a.664.664 0 00.908.052l5.506-5.196-4.914-7.414zM17.042 15.324c-.579.542-1.271 1.29-2.05 2.31l-4.913 7.415 5.505 5.196a.658.658 0 00.908-.052l2.079-2.21c.083-8.888-1.53-12.657-1.53-12.657l.001-.002zM31.604 13.503l.138-.002.419.002c2.671-.001 4.338-1.664 5.284-3.1-2.498 1.566-5.421 1.447-5.421 1.447h-.282s-2.922.119-5.422-1.447c.944 1.435 2.611 3.1 5.284 3.1z"/><g fill="none" stroke="#5E8BC7" stroke-linecap="round" stroke-linejoin="round" stroke-miterlimit="10"><path d="M32.023 55.046c6.213.104 12.792-.687 12.792-.687 0-18.793.42-27.297.42-27.297l2.52 2.677 7.35-6.193-5.67-8.558c-2.363-3.097-3.936-3.674-3.936-3.674l-7.666-3.15c-2.572 1.838-5.809 1.702-5.809 1.702h-.282s-3.235.136-5.809-1.702l-7.666 3.15s-1.575.578-3.936 3.674l-5.67 8.558 7.35 6.193 2.519-2.677s.42 8.504.42 27.297c0 0 6.579.791 12.792.687h.281z"/><path d="M47.383 12.678c.579.543 1.271 1.29 2.051 2.31l5.67 8.558-7.35 6.193-2.52-2.677c-.42-10.131 2.15-14.383 2.149-14.384zM16.381 12.678c-.579.543-1.272 1.29-2.051 2.31l-5.67 8.558 7.35 6.193 2.519-2.677c.42-10.131-2.149-14.383-2.148-14.384zM25.932 8.163s1.539 4.781 5.809 4.676h.282c4.27.104 5.809-4.676 5.809-4.676l3.605 1.481c-.244.888-2.166 6.907-9.369 6.904h-.376c-7.204.003-9.124-6.022-9.366-6.905v.001l3.606-1.481z"/><path d="M37.832 8.163s-1.54 4.781-5.809 4.676h-.282c-4.271.104-5.809-4.676-5.809-4.676 2.574 1.838 5.809 1.702 5.809 1.702h.282s3.237.136 5.809-1.702z"/></g></svg>