<svg xmlns="http://www.w3.org/2000/svg" width="64" height="64" viewBox="0 0 64 64"><path fill="#BAD6EE" d="M24.421 13.042l-.224 1.798 2.315 6.408 1.118-4.4zM37.883 13.704l.555 1.136-2.315 6.408-1.448-3.738zM37.327 12.559c-6.761-2.43-12.02 0-12.02 0l1.292 1.113c1.777-.509 5.235-1.127 9.404.032l1.324-1.145z"/><g fill="none" stroke="#5E8BC7" stroke-linecap="round" stroke-linejoin="round" stroke-miterlimit="10"><path d="M19.118 29.058l-1.958 4.243-6.816-2.736 5.581-13.498 8.272-2.889 1.11-2.7s5.259-2.43 12.02 0l1.106 2.7 7.768 2.889 5.581 13.498-6.816 2.736-1.958-4.243h-.002l.846 21.09c-2.593 3.314-12.789 3.457-12.789 3.457-10.971.336-12.711-3.457-12.711-3.457l.766-21.09z"/><path d="M25.308 11.479s5.259-2.43 12.02 0l-3.208 3.806-1.438.734.146 1.528-1.465 3.86-1.928-3.86.012-1.528-.932-.734-3.207-3.806z"/><path d="M19.118 29.058l-1.958 4.243-6.816-2.736 5.581-13.498 8.272-2.889 1.11-2.7 3.207 3.806.932.734-.012 1.528 1.928 3.86s-.869 26.453.144 32.185c-.425.019-.443.013-.443.013-10.971.336-12.711-3.457-12.711-3.457l.766-21.089"/><path d="M43.008 29.058l1.958 4.243 6.816-2.736-5.581-13.498-7.768-2.889-1.106-2.7-3.208 3.806-1.438.734.146 1.528-1.465 3.86s-.869 26.453.144 32.185c1.987-.073 10.077-.543 12.346-3.444l-.846-21.089h.002z"/><path d="M32.863 44.443a.166.166 0 01-.166.166.166.166 0 01-.168-.166c0-.094.074-.168.168-.168.093 0 .166.075.166.168zM32.932 38.389a.167.167 0 11-.334-.002.167.167 0 01.334.002zM32.998 33.166a.168.168 0 01-.335 0c0-.096.075-.168.167-.168s.168.072.168.168zM33.23 27.111c0 .09-.073.166-.166.166a.167.167 0 010-.334c.093 0 .166.073.166.168zM37.327 11.479c-6.761-2.43-12.02 0-12.02 0l1.292 1.532c1.777-.51 5.235-1.127 9.404.032l1.324-1.564z"/><circle cx="33.398" cy="21.455" r=".167"/><path d="M37.327 11.479l1.111 2.7-2.315 6.407-2.004-5.302zM25.308 11.479l-1.111 2.7 2.315 6.407 2.003-5.302z"/></g></svg>